<svg xmlns="http://www.w3.org/2000/svg" xmlns:svgjs="http://svgjs.com/svgjs" xmlns:xlink="http://www.w3.org/1999/xlink" width="360" height="360"><svg xmlns="http://www.w3.org/2000/svg" width="360" height="360" data-name="Layer 1" viewBox="0 0 600 600"><path fill="#2b4f42" d="M86.53 490.69h444.64v2.79H86.53z" class="color2b4f42 svgShape" opacity=".5" transform="rotate(180 308.855 492.085)"/><g class="color000 svgShape" opacity=".25"><path fill="#2b4f42" d="M486.15 239.85a2.25 2.25 0 1 1 2.25 2.24 2.25 2.25 0 0 1-2.25-2.24ZM460.41 239.85a2.25 2.25 0 1 1 2.24 2.24 2.24 2.24 0 0 1-2.24-2.24ZM434.66 239.85a2.25 2.25 0 1 1 2.24 2.24 2.24 2.24 0 0 1-2.24-2.24ZM408.91 239.85a2.25 2.25 0 1 1 2.24 2.24 2.24 2.24 0 0 1-2.24-2.24ZM382.41 239.85a2.25 2.25 0 1 1 2.24 2.24 2.24 2.24 0 0 1-2.24-2.24ZM356.66 239.85a2.25 2.25 0 1 1 2.25 2.24 2.25 2.25 0 0 1-2.25-2.24ZM330.91 239.85a2.25 2.25 0 1 1 2.25 2.24 2.25 2.25 0 0 1-2.25-2.24ZM305.16 239.85a2.25 2.25 0 1 1 2.25 2.24 2.25 2.25 0 0 1-2.25-2.24ZM498.6 230.17a2.25 2.25 0 1 1 2.24 2.25 2.24 2.24 0 0 1-2.24-2.25ZM472.85 230.17a2.25 2.25 0 1 1 2.24 2.25 2.24 2.24 0 0 1-2.24-2.25ZM447.1 230.17a2.25 2.25 0 1 1 2.24 2.25 2.24 2.24 0 0 1-2.24-2.25ZM421.35 230.17a2.25 2.25 0 1 1 2.25 2.25 2.25 2.25 0 0 1-2.25-2.25ZM394.85 230.17a2.25 2.25 0 1 1 2.25 2.25 2.25 2.25 0 0 1-2.25-2.25ZM369.1 230.17a2.25 2.25 0 1 1 2.25 2.25 2.25 2.25 0 0 1-2.25-2.25ZM343.35 230.17a2.25 2.25 0 1 1 2.25 2.25 2.25 2.25 0 0 1-2.25-2.25ZM317.6 230.17a2.25 2.25 0 1 1 2.25 2.25 2.25 2.25 0 0 1-2.25-2.25ZM486.15 219.77a2.25 2.25 0 1 1 2.25 2.23 2.24 2.24 0 0 1-2.25-2.23ZM460.41 219.77a2.25 2.25 0 1 1 2.24 2.25 2.24 2.24 0 0 1-2.24-2.25ZM434.66 219.77a2.25 2.25 0 1 1 2.24 2.23 2.24 2.24 0 0 1-2.24-2.23ZM408.91 219.77a2.25 2.25 0 1 1 2.24 2.25 2.24 2.24 0 0 1-2.24-2.25ZM382.41 219.77a2.25 2.25 0 1 1 2.24 2.25 2.24 2.24 0 0 1-2.24-2.25ZM356.66 219.77a2.25 2.25 0 1 1 2.25 2.25 2.24 2.24 0 0 1-2.25-2.25ZM330.91 219.77a2.25 2.25 0 1 1 2.25 2.25 2.24 2.24 0 0 1-2.25-2.25ZM305.16 219.77a2.25 2.25 0 1 1 2.25 2.25 2.24 2.24 0 0 1-2.25-2.25ZM498.6 210.09a2.25 2.25 0 1 1 2.24 2.25 2.24 2.24 0 0 1-2.24-2.25ZM472.85 210.09a2.25 2.25 0 1 1 2.24 2.25 2.24 2.24 0 0 1-2.24-2.25ZM447.1 210.09a2.25 2.25 0 1 1 2.24 2.25 2.24 2.24 0 0 1-2.24-2.25ZM421.35 210.09a2.25 2.25 0 1 1 2.25 2.25 2.24 2.24 0 0 1-2.25-2.25ZM394.85 210.09a2.25 2.25 0 1 1 2.25 2.25 2.24 2.24 0 0 1-2.25-2.25ZM369.1 210.09a2.25 2.25 0 1 1 2.25 2.25 2.24 2.24 0 0 1-2.25-2.25ZM343.35 210.09a2.25 2.25 0 1 1 2.25 2.25 2.24 2.24 0 0 1-2.25-2.25ZM317.6 210.09a2.25 2.25 0 1 1 2.25 2.25 2.24 2.24 0 0 1-2.25-2.25Z" class="color2b4f42 svgShape"/><circle cx="488.4" cy="199.7" r="2.25" fill="#2b4f42" class="color2b4f42 svgShape"/><path fill="#2b4f42" d="M460.41 199.7a2.25 2.25 0 1 1 2.24 2.24 2.24 2.24 0 0 1-2.24-2.24ZM434.66 199.7a2.25 2.25 0 1 1 2.24 2.24 2.24 2.24 0 0 1-2.24-2.24ZM408.91 199.7a2.25 2.25 0 1 1 2.24 2.24 2.24 2.24 0 0 1-2.24-2.24ZM382.41 199.7a2.25 2.25 0 1 1 2.24 2.24 2.24 2.24 0 0 1-2.24-2.24Z" class="color2b4f42 svgShape"/><circle cx="358.91" cy="199.7" r="2.25" fill="#2b4f42" class="color2b4f42 svgShape"/><path fill="#2b4f42" d="M330.91 199.7a2.25 2.25 0 1 1 2.25 2.24 2.25 2.25 0 0 1-2.25-2.24ZM305.16 199.7a2.25 2.25 0 1 1 2.25 2.24 2.25 2.25 0 0 1-2.25-2.24ZM498.6 190a2.25 2.25 0 1 1 2.24 2.25 2.24 2.24 0 0 1-2.24-2.25ZM472.85 190a2.25 2.25 0 1 1 2.24 2.25 2.24 2.24 0 0 1-2.24-2.25ZM447.1 190a2.25 2.25 0 1 1 2.24 2.25 2.24 2.24 0 0 1-2.24-2.25ZM421.35 190a2.25 2.25 0 1 1 2.25 2.25 2.25 2.25 0 0 1-2.25-2.25ZM394.85 190a2.25 2.25 0 1 1 2.25 2.25 2.25 2.25 0 0 1-2.25-2.25ZM369.1 190a2.25 2.25 0 1 1 2.25 2.25 2.25 2.25 0 0 1-2.25-2.25ZM343.35 190a2.25 2.25 0 1 1 2.25 2.25 2.25 2.25 0 0 1-2.25-2.25ZM317.6 190a2.25 2.25 0 1 1 2.25 2.25 2.25 2.25 0 0 1-2.25-2.25ZM486.15 179.62a2.25 2.25 0 1 1 2.25 2.25 2.25 2.25 0 0 1-2.25-2.25ZM460.41 179.62a2.25 2.25 0 1 1 2.24 2.25 2.24 2.24 0 0 1-2.24-2.25ZM434.66 179.62a2.25 2.25 0 1 1 2.24 2.25 2.24 2.24 0 0 1-2.24-2.25ZM408.91 179.62a2.25 2.25 0 1 1 2.24 2.25 2.24 2.24 0 0 1-2.24-2.25ZM382.41 179.62a2.25 2.25 0 1 1 2.24 2.25 2.24 2.24 0 0 1-2.24-2.25ZM356.66 179.62a2.25 2.25 0 1 1 2.25 2.25 2.25 2.25 0 0 1-2.25-2.25ZM330.91 179.62a2.25 2.25 0 1 1 2.25 2.25 2.25 2.25 0 0 1-2.25-2.25ZM305.16 179.62a2.25 2.25 0 1 1 2.25 2.25 2.25 2.25 0 0 1-2.25-2.25ZM498.6 169.94a2.25 2.25 0 1 1 2.24 2.25 2.24 2.24 0 0 1-2.24-2.25ZM472.85 169.94a2.25 2.25 0 1 1 2.24 2.25 2.24 2.24 0 0 1-2.24-2.25ZM447.1 169.94a2.25 2.25 0 1 1 2.24 2.25 2.24 2.24 0 0 1-2.24-2.25ZM421.35 169.94a2.25 2.25 0 1 1 2.25 2.25 2.24 2.24 0 0 1-2.25-2.25ZM394.85 169.94a2.25 2.25 0 1 1 2.25 2.25 2.24 2.24 0 0 1-2.25-2.25ZM369.1 169.94a2.25 2.25 0 1 1 2.25 2.25 2.24 2.24 0 0 1-2.25-2.25ZM343.35 169.94a2.25 2.25 0 1 1 2.25 2.25 2.24 2.24 0 0 1-2.25-2.25ZM317.6 169.94a2.25 2.25 0 1 1 2.25 2.25 2.24 2.24 0 0 1-2.25-2.25Z" class="color2b4f42 svgShape"/></g><g class="color000 svgShape" opacity=".25"><path fill="#2b4f42" d="M245.14 449.5a2.25 2.25 0 1 1 2.24 2.25 2.24 2.24 0 0 1-2.24-2.25ZM219.39 449.5a2.25 2.25 0 1 1 2.24 2.25 2.24 2.24 0 0 1-2.24-2.25ZM193.64 449.5a2.25 2.25 0 1 1 2.25 2.25 2.25 2.25 0 0 1-2.25-2.25ZM167.89 449.5a2.25 2.25 0 1 1 2.25 2.25 2.25 2.25 0 0 1-2.25-2.25ZM141.39 449.5a2.25 2.25 0 1 1 2.25 2.25 2.25 2.25 0 0 1-2.25-2.25ZM115.64 449.5a2.25 2.25 0 1 1 2.25 2.25 2.25 2.25 0 0 1-2.25-2.25ZM89.89 449.5a2.25 2.25 0 1 1 2.25 2.25 2.25 2.25 0 0 1-2.25-2.25ZM64.14 449.5a2.25 2.25 0 1 1 2.25 2.25 2.25 2.25 0 0 1-2.25-2.25ZM257.58 439.82a2.25 2.25 0 1 1 2.25 2.25 2.24 2.24 0 0 1-2.25-2.25ZM231.83 439.82a2.25 2.25 0 1 1 2.25 2.25 2.24 2.24 0 0 1-2.25-2.25ZM206.08 439.82a2.25 2.25 0 1 1 2.25 2.25 2.24 2.24 0 0 1-2.25-2.25ZM180.33 439.82a2.25 2.25 0 1 1 2.25 2.25 2.24 2.24 0 0 1-2.25-2.25ZM153.83 439.82a2.25 2.25 0 1 1 2.25 2.25 2.24 2.24 0 0 1-2.25-2.25ZM128.08 439.82a2.25 2.25 0 1 1 2.25 2.25 2.24 2.24 0 0 1-2.25-2.25ZM102.33 439.82a2.25 2.25 0 1 1 2.25 2.25 2.24 2.24 0 0 1-2.25-2.25ZM76.59 439.82a2.25 2.25 0 1 1 2.24 2.25 2.24 2.24 0 0 1-2.24-2.25ZM245.14 429.42a2.25 2.25 0 1 1 2.24 2.25 2.24 2.24 0 0 1-2.24-2.25ZM219.39 429.42a2.25 2.25 0 1 1 2.24 2.25 2.24 2.24 0 0 1-2.24-2.25ZM193.64 429.42a2.25 2.25 0 1 1 2.25 2.25 2.24 2.24 0 0 1-2.25-2.25ZM167.89 429.42a2.25 2.25 0 1 1 2.25 2.25 2.24 2.24 0 0 1-2.25-2.25ZM141.39 429.42a2.25 2.25 0 1 1 2.25 2.25 2.24 2.24 0 0 1-2.25-2.25ZM115.64 429.42a2.25 2.25 0 1 1 2.25 2.25 2.24 2.24 0 0 1-2.25-2.25ZM89.89 429.42a2.25 2.25 0 1 1 2.25 2.25 2.24 2.24 0 0 1-2.25-2.25ZM64.14 429.42a2.25 2.25 0 1 1 2.25 2.25 2.24 2.24 0 0 1-2.25-2.25ZM257.58 419.75a2.25 2.25 0 1 1 2.25 2.24 2.25 2.25 0 0 1-2.25-2.24ZM231.83 419.75a2.25 2.25 0 1 1 2.25 2.24 2.25 2.25 0 0 1-2.25-2.24ZM206.08 419.75a2.25 2.25 0 1 1 2.25 2.24 2.25 2.25 0 0 1-2.25-2.24Z" class="color2b4f42 svgShape"/><circle cx="182.58" cy="419.75" r="2.25" fill="#2b4f42" class="color2b4f42 svgShape"/><path fill="#2b4f42" d="M153.83 419.75a2.25 2.25 0 1 1 2.25 2.24 2.25 2.25 0 0 1-2.25-2.24Z" class="color2b4f42 svgShape"/><circle cx="130.33" cy="419.75" r="2.25" fill="#2b4f42" class="color2b4f42 svgShape"/><path fill="#2b4f42" d="M102.33 419.75a2.25 2.25 0 1 1 2.25 2.24 2.25 2.25 0 0 1-2.25-2.24ZM76.59 419.75a2.25 2.25 0 1 1 2.24 2.25 2.24 2.24 0 0 1-2.24-2.25ZM245.14 409.35a2.25 2.25 0 1 1 2.24 2.25 2.24 2.24 0 0 1-2.24-2.25Z" class="color2b4f42 svgShape"/><circle cx="221.63" cy="409.35" r="2.25" fill="#2b4f42" class="color2b4f42 svgShape"/><path fill="#2b4f42" d="M193.64 409.35a2.25 2.25 0 1 1 2.25 2.25 2.25 2.25 0 0 1-2.25-2.25ZM167.89 409.35a2.25 2.25 0 1 1 2.25 2.25 2.25 2.25 0 0 1-2.25-2.25ZM141.39 409.35a2.25 2.25 0 1 1 2.25 2.25 2.25 2.25 0 0 1-2.25-2.25ZM115.64 409.35a2.25 2.25 0 1 1 2.25 2.25 2.25 2.25 0 0 1-2.25-2.25Z" class="color2b4f42 svgShape"/><circle cx="92.14" cy="409.35" r="2.25" fill="#2b4f42" class="color2b4f42 svgShape"/><path fill="#2b4f42" d="M64.14 409.35a2.25 2.25 0 1 1 2.25 2.25 2.25 2.25 0 0 1-2.25-2.25ZM257.58 399.67a2.25 2.25 0 1 1 2.25 2.25 2.25 2.25 0 0 1-2.25-2.25ZM231.83 399.67a2.25 2.25 0 1 1 2.25 2.25 2.25 2.25 0 0 1-2.25-2.25ZM206.08 399.67a2.25 2.25 0 1 1 2.25 2.25 2.25 2.25 0 0 1-2.25-2.25ZM180.33 399.67a2.25 2.25 0 1 1 2.25 2.25 2.25 2.25 0 0 1-2.25-2.25ZM153.83 399.67a2.25 2.25 0 1 1 2.25 2.25 2.25 2.25 0 0 1-2.25-2.25ZM128.08 399.67a2.25 2.25 0 1 1 2.25 2.25 2.25 2.25 0 0 1-2.25-2.25ZM102.33 399.67a2.25 2.25 0 1 1 2.25 2.25 2.25 2.25 0 0 1-2.25-2.25ZM76.59 399.67a2.25 2.25 0 1 1 2.24 2.25 2.24 2.24 0 0 1-2.24-2.25ZM245.14 389.27a2.25 2.25 0 1 1 2.24 2.25 2.24 2.24 0 0 1-2.24-2.25ZM219.39 389.27a2.25 2.25 0 1 1 2.24 2.25 2.24 2.24 0 0 1-2.24-2.25ZM193.64 389.27a2.25 2.25 0 1 1 2.25 2.25 2.24 2.24 0 0 1-2.25-2.25ZM167.89 389.27a2.25 2.25 0 1 1 2.25 2.25 2.24 2.24 0 0 1-2.25-2.25ZM141.39 389.27a2.25 2.25 0 1 1 2.25 2.25 2.24 2.24 0 0 1-2.25-2.25ZM115.64 389.27a2.25 2.25 0 1 1 2.25 2.25 2.24 2.24 0 0 1-2.25-2.25ZM89.89 389.27a2.25 2.25 0 1 1 2.25 2.25 2.24 2.24 0 0 1-2.25-2.25ZM64.14 389.27a2.25 2.25 0 1 1 2.25 2.25 2.24 2.24 0 0 1-2.25-2.25ZM257.58 379.6a2.25 2.25 0 1 1 2.25 2.24 2.25 2.25 0 0 1-2.25-2.24ZM231.83 379.6a2.25 2.25 0 1 1 2.25 2.24 2.25 2.25 0 0 1-2.25-2.24ZM206.08 379.6a2.25 2.25 0 1 1 2.25 2.24 2.25 2.25 0 0 1-2.25-2.24ZM180.33 379.6a2.25 2.25 0 1 1 2.25 2.24 2.25 2.25 0 0 1-2.25-2.24ZM153.83 379.6a2.25 2.25 0 1 1 2.25 2.24 2.25 2.25 0 0 1-2.25-2.24ZM128.08 379.6a2.25 2.25 0 1 1 2.25 2.24 2.25 2.25 0 0 1-2.25-2.24ZM102.33 379.6a2.25 2.25 0 1 1 2.25 2.24 2.25 2.25 0 0 1-2.25-2.24ZM76.59 379.6a2.25 2.25 0 1 1 2.24 2.24 2.24 2.24 0 0 1-2.24-2.24Z" class="color2b4f42 svgShape"/></g><path fill="#ffbf66" d="M235.92 187.71a10.8 10.8 0 0 0-10.71 9.45 10.81 10.81 0 0 0-10.72-9.45 10.81 10.81 0 0 0 10.72-9.45 10.8 10.8 0 0 0 10.71 9.45ZM206.74 183.79a5.08 5.08 0 0 0-5.05 4.45 5.1 5.1 0 0 0-5.06-4.45 5.11 5.11 0 0 0 5.06-4.46 5.09 5.09 0 0 0 5.05 4.46ZM237.58 214.89a19.3 19.3 0 0 0-19.16 16.9 19.33 19.33 0 0 0-19.17-16.9A19.33 19.33 0 0 0 218.42 198a19.3 19.3 0 0 0 19.16 16.89Z" class="color95cb62 svgShape"/><g class="color000 svgShape" opacity=".5"><path fill="#cce7bb" d="M452.11 343.05c-19 9.54-33.25 24.65-42.26 43.87-5.85 12.38-7.94 26.08-12.92 38.75-5.9 15.05-18 22.49-30.25 32.08-10.48 8.21-20.87 17.1-28.13 28.33q-1.43 2.21-2.67 4.53H386c14.1-8.63 29.38-15.24 39.86-28.49 11.05-14 14.16-32.29 16.17-49.49 1.56-13.39 2.77-27.08 7.49-39.81 4.93-13.26 12.95-25.31 21.23-36.68a81.75 81.75 0 0 0-18.64 6.91Z" class="colorcce7bb svgShape"/><path fill="#ffbf66" d="M441.75 281.68a62 62 0 0 0-10.59-16.82c-8.63 22.48-19.43 41.48-36.13 59-11.53 12.1-23.84 23.69-32.77 37.82-7 11.11-11.16 23.5-11.31 36.24-.17 15.23 6.77 29.5 9.64 44.35a210.4 210.4 0 0 1 3.66 48.44H398c15.61-21.35 21.72-49.22 18.21-75.28-.72-5.38-1.86-10.74-1.86-16.16 0-21.84 22-41.89 29.05-62 6.31-18.11 6.11-37.99-1.65-55.59Z" class="color95cb62 svgShape"/></g><g class="color000 svgShape" opacity=".5"><path fill="#cce7bb" d="M146 323.58c21.54 10.81 37.63 27.9 47.84 49.65 6.57 14 9 29.5 14.61 43.86 6.69 17 20.38 25.47 34.25 36.32 11.86 9.29 23.61 19.34 31.83 32.06 1.08 1.66 2.08 3.37 3 5.13h-56.65c-16-9.77-33.25-17.26-45.1-32.25-12.51-15.82-16-36.55-18.31-56-1.77-15.16-3.13-30.65-8.48-45.06-5.58-15-14.65-28.64-24-41.51a92.28 92.28 0 0 1 21.01 7.8Z" class="colorcce7bb svgShape"/><path fill="#ffbf66" d="M148.43 221.17a79.52 79.52 0 0 1 13.65-21.69c11.14 29 25.06 53.49 46.6 76.09 14.87 15.6 30.74 30.55 42.25 48.77 9.05 14.33 14.4 30.3 14.59 46.73.22 19.64-8.73 38-12.43 57.18a270.47 270.47 0 0 0-4.72 62.47h-43.51c-20.13-27.53-28-63.47-23.49-97.07.94-6.94 2.4-13.85 2.41-20.85 0-28.16-28.4-54-37.47-80-8.15-23.3-7.88-48.93 2.12-71.63Z" class="color95cb62 svgShape"/></g><path fill="#fff" d="M201.89 458.44v25.48h189.93v-25.48c0-6.06-6.3-11-14.08-11H216c-7.81.03-14.11 4.94-14.11 11Z" class="color3a614d svgShape"/><rect width="204.52" height="17.98" x="194.6" y="483.9" fill="#ff8066" class="color5c7c47 svgShape" rx="8.99"/><path fill="#ff8066" d="M374.67 433.31h-6.83c.22-.8.44-1.73.71-2.78 6.24-24.65 27.53-116.83 10.9-166.71-12-35.93-41.05-47.3-61.41-50.77a73 73 0 0 0-24.3-4.45c-9 0-18.92 2.06-26.95 9-19.18 16.54-8.59 20.4-7.79 20.62s-44.77 28.42-52.57 48.29c0 0-7 16 6.62 19.08l15.19-5.84-10.91 8.56s5.22 13.63 14.49 8.17 27.18-10.12 38.48-5.45a63.13 63.13 0 0 0 10.92 1.15s.81-.06 2.19-.09a34.49 34.49 0 0 0 5.65-.74 26.42 26.42 0 0 0 3.62-1c.61-.24 1.23-.51 1.88-.78l1.89-.95a31.57 31.57 0 0 0 3.71-2.44 28.83 28.83 0 0 0 3.4-3.06 41.31 41.31 0 0 0 5.53-7.23 58.06 58.06 0 0 0 3.73-7.11c.9-2.17 1.67-4 2.09-5.33s.68-2.09.68-2.09-.05.81-.29 2.19a45.25 45.25 0 0 1-4.68 13.24 39 39 0 0 1-2.49 4 37.82 37.82 0 0 1-3.13 3.71 29.64 29.64 0 0 1-3.7 3.22 26.22 26.22 0 0 1-4.05 2.46c-.71.33-1.4.63-2.08.91l-2.07.65a31.21 31.21 0 0 1-3.87.75.68.68 0 0 0-.2 0c-4.48 16.17-13.79 35-33 48.67-34.41 24.59-31.8 60.92-30 72.13h-7a7.51 7.51 0 1 0 0 15h155.64a7.51 7.51 0 1 0 0-15Z" class="color5c7c47 svgShape"/><path fill="#bcdda6" d="M368.55 430.53c-.72 1.21-1.12 1.86-1.12 1.86h-30.68s30.78-76.44 32.4-105.6 1.61-82.6-34-95.57-76.14 7-76.14 7c-.75-.24-11.34-4.08 7.84-20.62 8-6.94 18-9 26.95-9a73 73 0 0 1 24.3 4.45c20.36 3.47 49.43 14.84 61.41 50.77 16.57 49.88-4.72 142.06-10.96 166.71Z" class="colorbcdda6 svgShape" opacity=".5"/><path fill="#fc9e17" d="M311.33 500.06h5.38a.87.87 0 0 1 .87.87v5.5h-7.11v-5.5a.87.87 0 0 1 .86-.87Z" class="colorfc9e17 svgShape"/><path fill="#fc9e17" d="M306 511.61c2.25 2.23 11.55-5.22 11.55-5.22l-7.11-4.8s-6.36 8.09-4.44 10.02Z" class="colorfc9e17 svgShape"/><path fill="#f99d9d" d="M311.56 493.54c0 .37-.08 3.42.12 8.56.82.94 3.06.63 4.05-.13 1.65-1.27 1.81-8.14 1.81-8.14Z" class="colorf99d9d svgShape"/><path fill="#ffbf66" d="M400.87 299.21c-.43-8.91-7.57-14.91-15-13.58l-45.42 8.2c-2.27.41-3.82 4.21-3.61 8.51s2.11 7.9 4.4 8.11l-7.86 12.9 16.13-12.23 37.75 3.07c7.53.61 14.05-6.06 13.61-14.98Z" class="color95cb62 svgShape"/><path fill="#fc9e17" d="M325.3 477.38h7.11v5.5a.87.87 0 0 1-.87.87h-5.38a.87.87 0 0 1-.87-.87v-5.5h.01Z" class="colorfc9e17 svgShape" transform="rotate(180 328.855 480.56)"/><path fill="#fc9e17" d="M336.84 488.93c-2.24 2.23-11.54-5.21-11.54-5.21l7.11-4.8s6.38 8.08 4.43 10.01Z" class="colorfc9e17 svgShape"/><path fill="#f99d9d" d="M331.31 470.87c0 .36.08 3.42-.13 8.55-.81.94-3.05.63-4-.12-1.65-1.27-1.81-8.15-1.81-8.15Z" class="colorf99d9d svgShape"/><path fill="#393767" d="M325.69 396.39s2.26 24.94-.28 36-6.21 28.94-6.21 28.94 1.13 29.87-1.13 35.1h-7.34s-2.54-32.64-2.26-37.25-1.13-60.66-1.13-60.66Z" class="color393767 svgShape"/><path fill="#393767" d="m334.16 391.16 8.82 45.33-10.42 28.16-6.78-.31 3.07-25.12-3.44-17.58-1.98-24.94 10.73-5.54z" class="color393767 svgShape"/><path fill="#2e2e5b" d="m328.79 439.71 1.14-2.08a9.47 9.47 0 0 1 9.31-4.89h.15a4.1 4.1 0 0 1 3.56 5c-2.31 9.6-7.69 31.53-9.95 37.73-.91 2.5-7.22 2.89-7.89.3-1.88-7.24 3.68-36.06 3.68-36.06Z" class="color2e2e5b svgShape"/><path fill="#425dff" d="M315.19 338.54c-4.75 1-14.7 1-17 5.47-5 9.75 4.18 32.07 6.38 41.1 1.23 4.95.48 19.31.5 19.54.2 1.92 29.6 1.49 33.21-8.1 2.6-6.88-3.67-16-4.56-22.78-.22-1.54 1.17-18.63-4.25-28.55-2.71-4.95-10.82-7.43-14.28-6.68Z" class="colorfff svgShape"/><path fill="#f99d9d" d="m288.33 371.36-10.14 19-3.29 6.8a6.18 6.18 0 0 0-5 .58c-2.19 1.51 2.46 1.67 2.46 1.67a38.86 38.86 0 0 0-1.66 6.7c-.18 1.58.24 3.1 2.71 2s4.21-2.25 5.63-8.46c.39-1.69.72-2.91 1-3.82 3.09-4.68 16-17.91 16-17.91l5.45-15.23-8.32-9.91Z" class="colorf99d9d svgShape"/><path fill="#f69982" d="M321.68 325.11s1.29.12.79 2-1.41 2.09-1.41 2.09-1.29-3.86.62-4.09ZM307.1 326.89s-1.23.42-.28 2.16 1.87 1.68 1.87 1.68.31-4.08-1.59-3.84Z" class="colorf69982 svgShape"/><path fill="#f3ab9c" d="M309.27 342.61s1.8 3.63 5 4.1a5.68 5.68 0 0 0 5.1-2l-.29-5.88-.16-3.05-8.67.17-.25 1.95Z" class="colorf3ab9c svgShape"/><path fill="#f69982" d="M310 337.9a6.4 6.4 0 0 0 3.18 2.68 4.55 4.55 0 0 0 5.94-1.75l-.16-3.05-8.67.17Z" class="colorf69982 svgShape"/><path fill="#f3ab9c" d="M321.58 329c.06.6.1 1.18.11 1.69a10.73 10.73 0 0 1-1 4.53c-.14.3-.29.59-.46.89a5.88 5.88 0 0 1-7.45 2.82c-4.36-1.39-5.26-5.7-5.46-9 0-.75 0-1.46-.05-2.06a17.22 17.22 0 0 0-.06-1.86 4.18 4.18 0 0 1 .65-3.14c5 2.06 12.73-.73 12.73-.73s.71 3.76.99 6.86Z" class="colorf3ab9c svgShape"/><path fill="#182856" d="M312.84 316.09s5.34-.81 8 3.29a7.82 7.82 0 0 1 .91 7.47s-.37 1.71-.52.72-1.25-5.14-1.25-5.14a7.87 7.87 0 0 1-4.34 1.32 46.88 46.88 0 0 1-7.76-.5s0 5-.53 4.55a5.3 5.3 0 0 1-1.21-2.7c-.14-1.57-1.28-8.36 6.7-9.01Z" class="color182856 svgShape"/><path fill="#182856" d="M311.64 336.31a3.73 3.73 0 0 1 4-2.24 5.41 5.41 0 0 1 3 1.34 5.13 5.13 0 0 1-4.33 1.71 8.05 8.05 0 0 1-2.67-.81Zm8.56-3.57a12.39 12.39 0 0 0-3.76-1c-1 .12-5 .45-5 .45l-1.93 1.46a22.22 22.22 0 0 0-2.18-3.73c.2 3.35 1.1 7.66 5.46 9a5.88 5.88 0 0 0 7.45-2.82c.17-.3.32-.59.46-.89a10.84 10.84 0 0 0 .92-4.43c0-.52-.06-1.1-.12-1.7a25.66 25.66 0 0 0-1.3 3.66Z" class="color182856 svgShape" opacity=".24"/><path fill="#f3f5f8" d="m383.24 297.32-33.02 2.33-.1-2.01 32.98-3.37.14 3.05zM383.6 304.55l-33.15-.14-.1-2.01 33.1-.9.15 3.05z" class="colorf3f5f8 svgShape" opacity=".5"/><path fill="#425dff" d="M298.18 344s-10 11.23-9.92 16.09l11.23 10.33 4.66-8Z" class="colorfff svgShape"/><path fill="#f99d9d" d="m346.45 366 13.31 16.88 4.45 6.11a6.19 6.19 0 0 1 5-.29c2.42 1.1-2.12 2.07-2.12 2.07a38.16 38.16 0 0 1 2.8 6.3c.46 1.53.31 3.1-2.31 2.41s-4.54-1.47-7-7.34c-.68-1.59-1.22-2.74-1.65-3.58C355 384.48 340 373.73 340 373.73l-8.06-14 6.45-11.22Z" class="colorf99d9d svgShape"/><path fill="#425dff" d="M323 340.36a25.73 25.73 0 0 1 22.27 18.83l-10.73 8.91-5.46-5.26Z" class="colorfff svgShape"/><path fill="#efafab" d="M426.13 385.16c-.17.4.26 1-.53 1.64-1.76 1.38-5.71 2.55-8.38-.2-.17 0-15.17 2.73-16.54 2s1.09-8.67 3.41-21.1c.55-3 2.34-5.89 5.43-6a6.4 6.4 0 0 1 1.89 4.64c.15 4.81-5 13.74-3.84 14.88 2.22-.29 1.2 1.35 9.17 1.79a5 5 0 0 0 3.61-.88c1-.73 2.34-3.53 4.84-2.93.55.13-.5 2.26-.83 2.57-.5.38 3 .95 2.74 2.13-.03.22-.89 1.3-.97 1.46Z" class="colorefafab svgShape"/><path fill="#425dff" d="m414 366.41-2.2-10.79a8.93 8.93 0 0 0-5.92 4.59c-.31.6-.56 1.23-.81 1.85-1.05 2.69-2.5 5.12-3.56 7.8a15.71 15.71 0 0 0 4.66 2.25 10 10 0 0 0 4.34.58 2 2 0 0 0 .73-.16 2.37 2.37 0 0 0 .76-.65q.68-.78 1.32-1.59a4.34 4.34 0 0 0 .88-1.51 4.69 4.69 0 0 0-.2-2.37Z" class="colorfff svgShape"/><path fill="#f69" d="M409.24 363a.77.77 0 0 1 .33-.29.62.62 0 0 1 .72.31 1.68 1.68 0 0 1 .15.83 11.71 11.71 0 0 1-.51 3.22l.34 5.66a10 10 0 0 1-4.06-.59c-.61-.23-1.27-.46-1.94-.73.67-3.23 2.85-5.93 4.97-8.41Z" class="color82a56b svgShape" opacity=".5"/><path fill="#fc9e17" d="M395.89 501.1c3.05-1.26 10.62-5.4 10.62-5.4a1.57 1.57 0 0 1 2 .51 17.65 17.65 0 0 1 1.23 4.6 1.72 1.72 0 0 1-1.41 2c-4.49.75-14.07 2.15-14.73 1.88-.79-.33-.77-2.32 2.29-3.59ZM425 500c3.06-1.26 8.92-5.84 8.92-5.84a1.57 1.57 0 0 1 2 .51 18 18 0 0 1 1.24 4.6c.16.94-.55 1.57-1.41 2-4.22 2.07-8.38 3.33-12 3.14-.92-.02-1.84-3.11 1.25-4.41Z" class="colorfc9e17 svgShape"/><path fill="#182856" d="M419 339.74c-.6-1.95-1.47-4.12-3.39-4.83l-5.05 1.32c-1.79 3.09-.25 7.3-2.05 10.38-.72 1.23-1.94 2.2-2.29 3.58a3.12 3.12 0 0 0 4.49 3.52 3.77 3.77 0 0 1 .7-.34c.89-.27 1.69.53 2.46 1.05a3.75 3.75 0 0 0 3.25.57 4.8 4.8 0 0 0 2.7-3.24c1.31-3.87.39-8.11-.82-12.01Z" class="color182856 svgShape"/><path fill="#ffb9b0" d="M424.68 353.59c-.06-.7.38-4.62.38-4.62l-7 1s.07 3.55-.47 3.78a13.92 13.92 0 0 1-2.29.71v7.33l9.78-1.47 6.74-3.75s-7.08-2.29-7.14-2.98ZM433.05 456.18c2.68 12.69 1.41 30.13 2 39.68-.06 0 .31 1-1.5 1.12s-2.14-.64-2.14-.64-8.27-40.27-9.78-48a11.18 11.18 0 0 1-.19-1.5c-.36-5.8 4.87-6.1 7.82-1.3a20.29 20.29 0 0 1 1.35 2.59c.16.38.32.76.48 1.17a36.36 36.36 0 0 1 1.3 4.05v.14c.12.41.22.82.32 1.23v.1c.15.49.29.92.34 1.36Z" class="colorffb9b0 svgShape"/><path fill="#ffb9b0" d="M417.38 410.63c.09 1.05.65 6.05 1.33 11.95.57 4.95 1.2 10.54 1.69 15 .36 3.32.63 6 .74 7.21a16.72 16.72 0 0 0 .3 2.14c1.26 5.8 5.26 6.13 7.69 4.79a5.23 5.23 0 0 0 .93-.63 3.06 3.06 0 0 0 1-1.71c.16-1.19.31-2.82.45-4.75.29-3.76.55-8.61.77-13.32.27-5.8.43-11.39.48-14.54v-.51c.05-9.66-8.83-15.85-14.34-12.86l-.2.1a1.35 1.35 0 0 1-.21.13c-.63.42-.84 1.86-.85 3.51a34.93 34.93 0 0 0 .22 3.49Z" class="colorffb9b0 svgShape"/><path fill="#ffb9b0" d="m430.88 447.08.68-2.53a40.81 40.81 0 0 0 .84 8.84v.14c.1.4.2.83.32 1.23v.1a7.22 7.22 0 0 1 .29 1.29c0 1.15-2.43-3.95-3-5.14l-.11-.24.66-2.65ZM411.76 458.61c.25 13.28-3.85 28.91-4.93 38.56a3.63 3.63 0 0 1-1.28.94 5.21 5.21 0 0 1-2.17 0s-.52-42.08-.56-50.12a12.16 12.16 0 0 1 .08-1.54c.66-5.86 5.41-4.85 7.25.65a23.26 23.26 0 0 1 .77 2.91c.09.42.16.84.24 1.29q.33 2.06.48 4.35v.16c0 .43.06.86.08 1.3v.1c.02.49.03.93.04 1.4Z" class="colorffb9b0 svgShape"/><path fill="#ffb9b0" d="M409 453.19a3.41 3.41 0 0 0 .93-.41 2.7 2.7 0 0 0 1.23-1.44c.35-1.15.77-2.75 1.23-4.63v-.05c.9-3.67 2-8.42 2.95-13.05 1.22-5.7 2.33-11.21 2.89-14.35.05-.17.54-2.45.57-2.61 1.71-9.71-5.87-16-11.37-14.19l-.21.08c-1.11.44-1.42 4.33-1.66 7s-2.12 29.89-2.59 34.82a21.38 21.38 0 0 0-.1 2.21c.13 6.01 3.71 7.34 6.13 6.62Z" class="colorffb9b0 svgShape"/><path fill="#ffb9b0" d="m411.36 449 1-2.35a45.06 45.06 0 0 0-.74 9v.16c0 .42 0 .86.08 1.3v.1a7.59 7.59 0 0 1 0 1.36c-.19 1.14-1.52-4.53-1.82-5.86l-.06-.26 1-2.48Z" class="colorffb9b0 svgShape"/><path fill="#393767" d="M428.22 392s7.13 9.05 6.4 18.14c-.31 3.79-.78 7.12-1.21 10.93-.06.55-.54 25.06-.3 25.06 0 0 .77 6.45 3.07 43.15.33 5.2-4.65 5.26-6.45 5.22-.23 0-11.21-63.24-11.44-63.25s-1.65 9.73-3.38 21.5c-2.64 18-6.07 42.39-6.37 42.37-4.06-.27-2.17.32-6.6-1.54 0-1-1.48-86.55 8.46-102.69a123.07 123.07 0 0 0 17.82 1.11Z" class="color393767 svgShape"/><path fill="#425dff" d="M405.91 371.09c.06 2.59 1.44 4.17 3.42 6.36a77.78 77.78 0 0 1 1.07 10c.11 2-.74 3.26 0 3.42 2.85 2.48 13.11 4.5 17.82 1.11-.49-4.18 1.38-13.39 2.64-18.07.2-.72.37-1.33.53-1.8 1.18-3.56 3.3-15 1.73-15.46-.31-.1-.8-.22-1.36-.39-2.47-.75-6.1-2-6.1-2s-2.13 6.31-7.68 7.07c-3-1.25-2.76-5.07-2.72-6.83-1 .27-1.43.54-4.5 1.45-.86 1.24-.11 3.83-1.5 7.69-.35.95-3.42 4.29-3.35 7.45Z" class="colorfff svgShape"/><path fill="#ffb9b0" d="M412.23 334.24s-1.85 8.13-.68 11.72c.86 2.67 4.42 5.15 7.39 5.12 8.19 0 9.65-11.12 9.61-11.66s-12.07-5.2-12.07-5.2Z" class="colorffb9b0 svgShape"/><path fill="#182856" d="M435.59 348a21.88 21.88 0 0 0-2.25-2.58 7.92 7.92 0 0 1-1.32-4.47 29.84 29.84 0 0 0-.32-4.73c-.57-2.64-1.32-5.15-3.36-6.85-3.14-2.63-9.32-4.21-12.94-1.6-8.09-1.79-7.48 5.1-7.45 5.4a5.49 5.49 0 0 0 2.22 3.24 2.73 2.73 0 0 0 1.26.28c1.38 0 2.53-.87 3.89-.73a2.57 2.57 0 0 1 1.71.95c.49.6.42 1.45 1 2a4.09 4.09 0 0 0 2 .91c.2.78 1.3 2.08 1.19.38l.28.13a1.12 1.12 0 0 1 .47.39 1.26 1.26 0 0 1 .12.58l.06 1.72c.54-.24.6-1 1-1.39a1.23 1.23 0 0 1 1.56.1 2.57 2.57 0 0 1 .75 1.49 4.2 4.2 0 0 1-.3 2.05c-.36 1.17-1.35 2.22-2.16 1.45-.59.86.05 2.3.07 3.27 0 .78 0 2.31-.72 2.82s-1.71.11-1.75 1.31a2.31 2.31 0 0 0 2.15 2.1 8 8 0 0 0 3.23-.57 5.16 5.16 0 0 1 3.24-.16 9.25 9.25 0 0 0 1.82.82 2.78 2.78 0 0 0 1.78-.42l.54-.31a4.48 4.48 0 0 0 2.19-2.21c.56-1.57.83-3.92.04-5.37Z" class="color182856 svgShape"/><path fill="#f4bcb8" d="M435.54 368.24c-1.17 6-.27 21.32-2.11 23.83-2.12 2.9-27.69-2.17-27.72-2.19l-.17.07c-.19.17-6.22 4.34-7.68-1.2-.09-.37-.2-.78-.29-1.18a5.51 5.51 0 0 1-.3-1.26 9.25 9.25 0 0 1 0-1.39 1.23 1.23 0 0 1 .17-.66 1.76 1.76 0 0 1 1.09-.61 2.63 2.63 0 0 1 .67-.09c-.07 0-.24-2.52.42-2.76 1.11-.43 1.32 1.54 2.41 2.65.14.15 1.53.79 1.74 1 .56.37 1.07.81 1.63 1.15a2.21 2.21 0 0 0 .73.16h2l17.93-.14h1.41s-1.24-13.23-1.84-17.17c-.67-4.32-1.16-8.09 1.05-10.93.95-.24 8.96 10.2 8.86 10.72Z" class="colorf4bcb8 svgShape"/><path fill="#425dff" d="m422.87 361.85 2.2 12.8s9.13 1.91 10.46 2 2-8.16 1.59-10.88c-.51-3.59-.89-11.18-8-9.19-4.03 1.08-6.25 5.27-6.25 5.27Z" class="colorfff svgShape"/><path fill="#efafab" d="M427.1 383.75c0 .17-.9 1.2-1 1.41a1.3 1.3 0 0 0 0 .4l-17.93.14c.65-1.32 1.24-2.68 1.78-4.05 1 .44 2.74 1 6.82 1.2a5 5 0 0 0 3.6-.88c1-.73 2.34-3.53 4.83-2.93.56.13-.48 2.25-.82 2.57-.53.39 2.99.96 2.72 2.14Z" class="colorefafab svgShape"/><path fill="#f3ab9c" d="M257.57 356.64s5.29-7.88 9.21-8.67 6 1.21 6 1.21l-4.27 2.14s4.48 1 3.45 2.22-5.41 1.41-6.67 1.35-5.17 4.39-5.17 4.39Z" class="colorf3ab9c svgShape"/><path fill="#425dff" d="M209.18 345.31c8-3.43 28.11 25 28.11 25l21.53-16.41 3.94 2.87s-18.9 27.39-25.16 26.41S212.05 361 212.05 361s-6.3-14.23-2.87-15.69Z" class="colorfff svgShape"/><path fill="#fc9e17" d="M210.07 512c-3.06-1.27-10.62-5.41-10.62-5.41a1.56 1.56 0 0 0-2 .52 17.56 17.56 0 0 0-1.23 4.59 1.71 1.71 0 0 0 1.41 2c4.49.76 14.07 2.15 14.73 1.88s.77-2.28-2.29-3.58Z" class="colorfc9e17 svgShape"/><path fill="#ffb9b0" d="M194.2 469.54c-.26 13.29 3.85 28.91 4.93 38.56a3.51 3.51 0 0 0 1.28.95 5.22 5.22 0 0 0 2.17 0s.52-42.09.56-50.13a11.9 11.9 0 0 0-.08-1.53c-.66-5.86-5.42-4.86-7.25.64A23.71 23.71 0 0 0 195 461c-.08.42-.16.84-.23 1.29a40.94 40.94 0 0 0-.48 4.36v.15c0 .43-.06.87-.08 1.3v.1c0 .43 0 .88-.01 1.34Z" class="colorffb9b0 svgShape"/><path fill="#fc9e17" d="M190.27 503.45c-1.6-2.89-4.93-10.84-4.93-10.84a1.56 1.56 0 0 0-1.9-.86 18.1 18.1 0 0 0-3.83 2.81 1.73 1.73 0 0 0-.15 2.45c3 3.39 9.66 10.46 10.34 10.66.84.25 2.06-1.32.47-4.22Z" class="colorfc9e17 svgShape"/><path fill="#ffb9b0" d="M204.38 460.35c-8.49 10.22-15 25-20.22 33.21a3.69 3.69 0 0 0 .41 1.53 5.33 5.33 0 0 0 1.7 1.36s26.67-32.56 31.72-38.82a13.15 13.15 0 0 0 .9-1.25c3.14-5-1.2-7.17-6.07-4a23.88 23.88 0 0 0-2.42 1.79l-1 .86c-1 .93-2.06 2-3.09 3.1l-.1.12c-.3.32-.59.64-.87 1l-.07.08c-.27.31-.59.67-.89 1.02Z" class="colorffb9b0 svgShape"/><path fill="#2e2e5b" d="M213.09 390.57c.67 1.26 20 32.79 18 46.17-2.54 16.41-40.93 56.7-40.93 56.7l-3.87-4.71 27.18-50.87-23.83-45.65Z" class="color2e2e5b svgShape"/><path fill="#393767" d="m212.75 394-8.91 112.17-6.65-1.34-11.12-95.32s-3-12.22 3.56-20.83 23.12 5.32 23.12 5.32Z" class="color393767 svgShape"/><path fill="#425dff" d="M218 385.92a14.14 14.14 0 0 1-.46 1.48c-.54 1.37.12 5.24-1 6.42-5 5.28-25.55 5.65-30.5.3-1.56-1.69-1.63-4.19-1.26-7.2.05-.45.12-.92.19-1.39.34-2.19.81-4.6 1.07-7.15.06-.58.11-1.17.14-1.78v-.37c.12-2.71.12-5.51.12-8.26v-2.24c0-6.53.22-12.52 2.4-16 2.37-3.74 6.67-5.13 11-5.46a41.33 41.33 0 0 1 12.9 1.36s5 5 5.54 19.65v1.63c0 3.45.21 6.45.32 9.09q0 .8.06 1.53a30.45 30.45 0 0 1-.52 8.39Z" class="colorfff svgShape"/><path fill="#c1e0ad" d="M218.1 366.72a4.24 4.24 0 0 0-1.77.71c-1.52 1-2.76 2.29-4.57 2.74a3.69 3.69 0 0 1-4.21-1.91 7.24 7.24 0 0 0-1.55-2.16c-.92-.69-1.72 0-2.54.52a17.88 17.88 0 0 1-5.14 2.36 7.31 7.31 0 0 1-4.79-.44 5.39 5.39 0 0 1-1.82-1.4c-.25-.31-.41-.66-.63-1s-.43-.22-.68.15c-.41.61-.51 1.37-1 2a2.15 2.15 0 0 1-.88.71c0-.65-.07-1.24-.11-1.76a3.94 3.94 0 0 0 .21-.49 4.25 4.25 0 0 1 1.14-1.88 1.57 1.57 0 0 1 2.07 0c.55.48.74 1.25 1.29 1.76a4.51 4.51 0 0 0 1.91 1 7.38 7.38 0 0 0 4.73-.6 20.61 20.61 0 0 0 2.62-1.4 8.68 8.68 0 0 1 2.19-1.16c1.65-.42 2.9.94 3.65 2.24a4.48 4.48 0 0 0 1.63 2 2.77 2.77 0 0 0 2.3-.19c1.54-.68 2.67-2 4.19-2.75a4.63 4.63 0 0 1 1.68-.45c.06.44.07.92.08 1.4ZM218.48 377.55a13.79 13.79 0 0 0-2.42-.7c-2.91-.47-6 2.65-8.76.44-.57-.46-.93-1.3-1.77-1a12.2 12.2 0 0 0-2 1c-1.31.72-2.6 1.48-3.94 2.15-2.56 1.28-5.44 2.29-8.35 1.73a11.62 11.62 0 0 1-5.29-2.78c.06-.58.11-1.17.14-1.78 1.93 1.79 4.14 3.3 6.87 3.3s5.41-1.39 7.81-2.71c1.25-.69 2.49-1.44 3.79-2.07a2.51 2.51 0 0 1 2-.25 5 5 0 0 1 1.41 1.17c1.24 1.14 3 .41 4.39-.08a7.53 7.53 0 0 1 4-.49 14.06 14.06 0 0 1 1.95.55q.14.79.17 1.52ZM218 385.92a14.14 14.14 0 0 1-.46 1.48l-.78.08a29.28 29.28 0 0 1-9 .14c-1.66-.33-3.25-.83-4.95-.44a30.71 30.71 0 0 0-4 1.52 10.68 10.68 0 0 1-4.33.76 19.38 19.38 0 0 1-4.69-1c-1.66-.51-3.31-1-5-1.57.05-.45.12-.92.19-1.39 2.21.73 4.43 1.44 6.67 2a11.22 11.22 0 0 0 4.85.35 22.33 22.33 0 0 0 4.07-1.49 9.41 9.41 0 0 1 4.15-.81c1.67.1 3.28.7 4.94.84a44.36 44.36 0 0 0 8.34-.47Z" class="colorc1e0ad svgShape"/><path fill="#393767" d="m199 343.61-.39.39a5.35 5.35 0 0 0-1.1 4.77c.83 2.55 2.53 6.19 6.15 6.17s2.7-8.91 2.7-8.91Z" class="color393767 svgShape"/><path fill="#f3ab9c" d="M214.46 327.07s-1.66 2.74-1.18 4.46 2 3.25.84 3.69-.42 1.54-.42 1.54l-1 5.82s-12.39.71-14.34-2.42.36-14.43 5.1-15.55 11 2.46 11 2.46Z" class="colorf3ab9c svgShape"/><path fill="#f3ab9c" d="m199.2 340.47-1 6.34s1.69 4.75 4.48 3.95 3.33-2.32 3.33-2.32l.87-5.64Z" class="colorf3ab9c svgShape"/><path fill="#e59c91" d="m199.16 334.62 1-2.37s-.69 2.23.7 3.55.67 4.52-1.87 4.34.17-5.52.17-5.52ZM200 340.82l6.77 2.37-.45 3.14-3.91-2.11a4.68 4.68 0 0 1-2.41-3.4Z" class="colore59c91 svgShape"/><path fill="#e29383" d="m213.75 328.18-.08.54-.38 1.24-4-1.75a5.56 5.56 0 0 1-2.82-2.75Z" class="colore29383 svgShape"/><path fill="#e59c91" d="m203.8 333.56.09-2.21s1.21 3.69 3.17 4.84 2.5-1 4.25-.94 2.23.77 2.23.77l-5.16 3.61Z" class="colore59c91 svgShape"/><path fill="#182856" d="M214.62 337.72a9 9 0 0 1-.49 4.22c-1.25 3.75-8.41 1.81-10.14 1.11h-.08c-1.56-.68-1-11.14-2.55-11.38s-1.75 1.28-1.72 5.9-2.33 1.86-2.33 1.86a8.67 8.67 0 0 1-2.25-2.93c-2.58-5.51.74-13.16 1.83-16.19a3.19 3.19 0 0 1 4.57-2s-1.47-2.07 10-.35c5.54.83 7.21 3.08 7.2 5.31a7 7 0 0 1-3 5.33c-2.14 1.09-5.68-1.13-8.59-2.69s-3.17 3.76-3.17 3.76c-.48 2.42 1.52 6.53 3.1 7.82s2-.8 4.76-1.66c1.61-.56 2.58.32 2.86 1.89Z" class="color182856 svgShape"/><path fill="#c1e0ad" d="M193.74 396.87s-6.85-.37-8.35-3.51-.44-9.73-.44-9.73.79-9.38 1.83-15.08c.11-.64.24-1.24.36-1.78a10.79 10.79 0 0 1 .61-2c.35-.75.55.33.71 2.43 0 .52.07 1.11.11 1.76.39 7.38.63 21.6 3.35 23.41 3.91 2.63 1.82 4.5 1.82 4.5Z" class="colorc1e0ad svgShape" opacity=".3"/><path fill="#f3ab9c" d="M188.56 401.61s4.15 2.6 5.25 2.33 4.27-.11 3.35.83a10.06 10.06 0 0 1-2.69 1.68l1 1.05s.41 1-2.21 1.62-2.53 2.17-2.53 2.17l-5.18-6.29Z" class="colorf3ab9c svgShape"/><path fill="#425dff" d="M190.82 347.09a82.33 82.33 0 0 0-11.57 14.36c-3.75 5.8-5.84 18.22-6.93 29.35-1 10.39 11.76 14.86 13.57 15.82 3.24 1.71 5.74-4.46 5.74-4.46s-9.42-3.22-8.39-11.84c.29-2.56 1.67-6 3.48-9.6.5-11.05 4.66-32.31 4.1-33.63Z" class="colorfff svgShape"/><path fill="#2e2e5b" d="m189.05 410.57 1.64 2.06 7.56-6.51-.95-1.12-8.25 5.57z" class="color2e2e5b svgShape"/><path fill="#ffbf66" fill-rule="evenodd" d="m176.92 321.69.18 1a2.91 2.91 0 0 0 2.86 2.46 2.84 2.84 0 0 0 1.89-.71 2.9 2.9 0 0 0 1-1.76l.15-.91a13.81 13.81 0 0 1-2.8.26 14.48 14.48 0 0 1-3.28-.34ZM179 298.17a8.42 8.42 0 0 0-5.07 14.26 25 25 0 0 1 2.94 7.36 14.54 14.54 0 0 0 3.35.38 15.4 15.4 0 0 0 2.88-.27 25.18 25.18 0 0 1 2.88-7.47 8.43 8.43 0 0 0-7-14.26Z" class="color95cb62 svgShape"/><path fill="#ffbf66" d="M179.09 289.34h1.2v5.39h-1.2zM162.77 305.66h5.39v1.2h-5.39zM191.22 305.66h5.39v1.2h-5.39z" class="color95cb62 svgShape"/><path fill="#ffbf66" d="M169.03 293.51h1.2v5.39h-1.2z" class="color95cb62 svgShape" transform="rotate(-45 169.629 296.197)"/><path fill="#ffbf66" d="M189.15 313.63h1.2v5.39h-1.2z" class="color95cb62 svgShape" transform="rotate(-45 189.746 316.325)"/><path fill="#ffbf66" d="M166.93 315.72h5.39v1.2h-5.39z" class="color95cb62 svgShape" transform="rotate(-45 169.636 316.325)"/><path fill="#ffbf66" d="M187.05 295.6h5.39v1.2h-5.39z" class="color95cb62 svgShape" transform="rotate(-45 189.775 296.213)"/></svg></svg>