<svg xmlns="http://www.w3.org/2000/svg" xmlns:svgjs="http://svgjs.com/svgjs" xmlns:xlink="http://www.w3.org/1999/xlink" width="360" height="360"><svg xmlns="http://www.w3.org/2000/svg" width="360" height="360" enable-background="new 0 0 3000 2500" viewBox="0 0 3000 2500"><rect width="3000" height="2500" fill="#fff" class="colorFFF svgShape"/><rect width="206.414" height="388.303" x="687.208" y="1961.914" fill="#425dff" class="colorA4D1E4 svgShape"/><rect width="206.417" height="694.489" x="1025.441" y="1655.728" fill="#425dff" class="colorA4D1E4 svgShape"/><rect width="206.421" height="545.715" x="1363.68" y="1804.502" fill="#425dff" class="colorA4D1E4 svgShape"/><rect width="206.416" height="663.413" x="1701.918" y="1686.804" fill="#425dff" class="colorA4D1E4 svgShape"/><rect width="206.419" height="946.345" x="2040.155" y="1403.872" fill="#425dff" class="colorA4D1E4 svgShape"/><rect width="401.817" height="41.733" x="471.282" y="783.853" fill="#425dff" class="colorA4D1E4 svgShape"/><rect width="401.817" height="41.736" x="471.282" y="869.304" fill="#425dff" class="colorA4D1E4 svgShape"/><rect width="175.327" height="41.737" x="471.282" y="954.758" fill="#425dff" class="colorA4D1E4 svgShape"/><polyline fill="none" stroke="#A4D1E4" stroke-linejoin="bevel" stroke-miterlimit="10" stroke-width="26" points="410.821 1804.502 1136.003 1321.606 1428.77 1689.975 2454.489 1031.442"/><polygon fill="#425dff" points="2313.66 1027.188 2513 992.313 2407.077 1151.739" class="colorA4D1E4 svgShape"/><path fill="none" stroke="#FFCE00" stroke-miterlimit="10" stroke-width="7" d="M1831.984,446
			c-11.192-31.427-25.672-54.209-44.854-54.449c-19.182-0.241-25.358-46.401-2.417-37.596c22.938,8.804,11.634,33.074,2.238,16.617
			c-9.396-16.457,2.76-27.956,17.001-25.194c22.577,4.38,11.055,44.025,3.523,20.891c-7.531-23.135,10.729-42.368,23.893-27.252
			c13.166,15.115,8.392,39.449-0.561,24.248c-8.948-15.203,3.848-34.877,13.921-21.49c10.07,13.387-2.55,36.537-5.587,47.873
			c-3.033,11.337,11.986,49.535,11.986,49.535" class="colorStrokeFFCE00 svgStroke"/><rect width="65.418" height="12.696" x="1812.332" y="454.396" fill="none" stroke="#425dff" stroke-linejoin="bevel" stroke-miterlimit="10" stroke-width="7" class="colorStrokeA4D1E4 svgStroke" transform="rotate(-19.604 1844.942 460.749)"/><rect width="65.417" height="12.696" x="1820.051" y="476.072" fill="none" stroke="#425dff" stroke-linejoin="bevel" stroke-miterlimit="10" stroke-width="7" class="colorStrokeA4D1E4 svgStroke" transform="rotate(-19.604 1852.755 482.432)"/><rect width="65.42" height="12.695" x="1827.847" y="497.961" fill="none" stroke="#425dff" stroke-linejoin="bevel" stroke-miterlimit="10" stroke-width="7" class="colorStrokeA4D1E4 svgStroke" transform="rotate(-19.604 1860.547 504.32)"/><rect width="30.267" height="12.696" x="1853.668" y="521.116" fill="none" stroke="#425dff" stroke-linejoin="bevel" stroke-miterlimit="10" stroke-width="7" class="colorStrokeA4D1E4 svgStroke" transform="rotate(-19.604 1869.007 527.499)"/><path fill="none" stroke="#425dff" stroke-linejoin="bevel" stroke-miterlimit="10" stroke-width="7" d="M1880.062,355.128h-0.003
			c5.677-17.481,5.845-36.902-0.799-55.555c-15.993-44.906-65.359-68.342-110.261-52.352
			c-44.907,15.992-68.346,65.36-52.353,110.264c6.643,18.654,19.048,33.596,34.498,43.554h-0.003
			c0.02,0.014,0.037,0.023,0.056,0.035c1.328,0.855,2.676,1.676,4.047,2.455c32.75,19.639,41.726,19.478,52.932,50.951
			l61.471-21.892c-11.209-31.473-4.155-37.02,8.809-72.939c0.57-1.471,1.097-2.96,1.586-4.462
			C1880.045,355.167,1880.055,355.147,1880.062,355.128z" class="colorStrokeA4D1E4 svgStroke"/><line x1="1763.912" x2="1709.877" y1="232.938" y2="81.223" fill="none" stroke="#425dff" stroke-linejoin="bevel" stroke-miterlimit="10" stroke-width="7" class="colorStrokeA4D1E4 svgStroke"/><line x1="1703.153" x2="1550.107" y1="363.234" y2="417.739" fill="none" stroke="#425dff" stroke-linejoin="bevel" stroke-miterlimit="10" stroke-width="7" class="colorStrokeA4D1E4 svgStroke"/><line x1="2046.394" x2="1893.35" y1="240.992" y2="295.498" fill="none" stroke="#425dff" stroke-linejoin="bevel" stroke-miterlimit="10" stroke-width="7" class="colorStrokeA4D1E4 svgStroke"/><line x1="1706.157" x2="1560.299" y1="285.642" y2="216.392" fill="none" stroke="#425dff" stroke-linejoin="bevel" stroke-miterlimit="10" stroke-width="7" class="colorStrokeA4D1E4 svgStroke"/><line x1="2036.204" x2="1888.993" y1="442.34" y2="372.446" fill="none" stroke="#425dff" stroke-linejoin="bevel" stroke-miterlimit="10" stroke-width="7" class="colorStrokeA4D1E4 svgStroke"/><line x1="1755.169" x2="1685.276" y1="420.108" y2="567.317" fill="none" stroke="#425dff" stroke-linejoin="bevel" stroke-miterlimit="10" stroke-width="7" class="colorStrokeA4D1E4 svgStroke"/><line x1="1911.225" x2="1841.973" y1="91.413" y2="237.279" fill="none" stroke="#425dff" stroke-linejoin="bevel" stroke-miterlimit="10" stroke-width="7" class="colorStrokeA4D1E4 svgStroke"/><line x1="1727.481" x2="1615.952" y1="255.552" y2="139.229" fill="none" stroke="#425dff" stroke-linejoin="bevel" stroke-miterlimit="10" stroke-width="7" class="colorStrokeA4D1E4 svgStroke"/><line x1="1725.779" x2="1608.116" y1="398.848" y2="511.663" fill="none" stroke="#425dff" stroke-linejoin="bevel" stroke-miterlimit="10" stroke-width="7" class="colorStrokeA4D1E4 svgStroke"/><line x1="1988.39" x2="1871.553" y1="147.068" y2="259.087" fill="none" stroke="#425dff" stroke-linejoin="bevel" stroke-miterlimit="10" stroke-width="7" class="colorStrokeA4D1E4 svgStroke"/><line x1="1696.792" x2="1534.898" y1="327.23" y2="323.822" fill="none" stroke="#425dff" stroke-linejoin="bevel" stroke-miterlimit="10" stroke-width="7" class="colorStrokeA4D1E4 svgStroke"/><line x1="2061.602" x2="1896.499" y1="334.908" y2="331.433" fill="none" stroke="#425dff" stroke-linejoin="bevel" stroke-miterlimit="10" stroke-width="7" class="colorStrokeA4D1E4 svgStroke"/><line x1="1803.795" x2="1800.403" y1="66.014" y2="227.096" fill="none" stroke="#425dff" stroke-linejoin="bevel" stroke-miterlimit="10" stroke-width="7" class="colorStrokeA4D1E4 svgStroke"/><path fill="none" stroke="#425dff" stroke-linejoin="bevel" stroke-miterlimit="10" stroke-width="7" d="M1897.822,330.027" class="colorStrokeA4D1E4 svgStroke"/><g class="color000 svgShape"><path fill="#f9ba7a" d="M1882.616,440.94c2.865-1.74,9.472-0.825,9.472-0.825l2.913,11.026c0,0,5.229,2.947,8.083,5.242
			c2.854,2.295,3.84,4.282,3.84,4.282s-5.205,4.711-5.577,4.898c-0.372,0.185-4.341,1.364-7.815,0.496
			c-3.472-0.868-5.332-0.434-6.387-1.799C1886.089,462.896,1882.616,440.94,1882.616,440.94z" class="colorF9BA7A svgShape"/><path fill="#ffd788" d="M1929.639,661.476c3.099-8.611,9.512-12.645,11.646-9.118c0.061,0.088,0.107,0.19,0.161,0.296
					c1.952,4.031-6.986,21.976-6.333,25.096c0.646,3.129,6.794-1.093,13.365-9.669c6.568-8.566,25.996-34.606,30.332-30.893
					c4.184,3.588-16.057,32.358-17.412,34.283c1.609-1.956,28.213-34.174,31.838-30.189c3.592,3.937-20.949,33.67-22.999,36.159
					c2.146-2.186,26.785-27.207,29.934-23.639c2.793,3.166-15.139,23.028-20.662,29.011c3.88-4.082,13.787-14.154,17.284-14.29
					c4.38-0.17,7.816,1.563,1.452,9.601c-6.365,8.039-31.521,34.551-39.289,39.789c-5.435,3.667-10.244,6.265-15.05,9.897
					c-2.059,1.548-4.108,3.292-6.204,5.379c0,0-9.359-0.592-17.605-2.454c-6.079-1.384-11.554-3.461-12.192-6.502
					c-0.272-1.209,0.212-2.553,1.708-4.073c10.433-10.583,9.931-15.706,8.581-22.388
					C1916.852,691.093,1926.458,670.333,1929.639,661.476z" class="colorFFD788 svgShape"/><path fill="#f9ba7a" d="M1929.639,661.476c3.099-8.611,9.512-12.645,11.646-9.118c-1.367,0.604-2.744,1.448-4.049,2.635
			c-6.274,5.748-12.163,22.97-12.491,32.589c-0.319,9.623-0.629,20.133-0.629,20.133s15.085,2.232,19.785,20.081l0.005,0.013
			c-2.059,1.548-4.108,3.292-6.204,5.379c0,0-9.359-0.592-17.605-2.454c-3.345-1.559-6.877-3.349-10.525-5.395
			c-0.595-0.334-1.157-0.699-1.667-1.108c-0.272-1.209,0.212-2.553,1.708-4.073c10.433-10.583,9.931-15.706,8.581-22.388
			C1916.852,691.093,1926.458,670.333,1929.639,661.476z" class="colorF9BA7A svgShape"/><path fill="red" d="M1940.34,733.782c0,0-16.709,24.828-33.203,46.442c-16.502,21.613-40.06,62.706-70.615,83.456
				c-24.282,16.502-68.739,44.993-111.589,67.43c-4.198,2.183-8.386,4.326-12.533,6.391c-6.779,3.364-13.456,6.529-19.937,9.427
				l20.224-44.894l24.689-54.796l1.816-4.02c0,0,79.12-31.705,88.715-42.82c9.606-11.114,83.141-86.67,83.141-86.67
				s7.917-1.896,18.139,4.694c6.303,4.058,9.071,8.96,10.271,12.116C1940.203,732.501,1940.34,733.782,1940.34,733.782z" class="colorred svgShape"/><path fill="#db0000" d="M1940.34,733.782c0,0-16.709,24.828-33.203,46.442c-16.502,21.613-40.06,62.706-70.615,83.456
			c-24.282,16.502-68.739,44.993-111.589,67.43l-12.246-29.076l24.689-54.796c8.188,26.435,6.153,64.71,12.593,60.522
			c6.62-4.307,79.389-45.985,85.343-51.274c5.954-5.29,6.947-13.893,5.298-28.113c-1.657-14.23-19.518-18.527-19.518-18.527
			s4.635-1.985,16.541,4.039c11.909,6.023,10.917,30.366,10.917,30.366s9.587-5.955,22.486-25.146
			c12.9-19.183,39.863-52.922,54.837-70.288c14.964-17.366,3.384-22.328-14.825-35.089c0,0,7.917-1.896,18.139,4.694
			c6.303,4.058,9.071,8.96,10.271,12.116C1940.203,732.501,1940.34,733.782,1940.34,733.782z" class="colorDB0000 svgShape"/><path fill="#ffd788" d="M1885.534,444.97c-0.159,0.804-0.397,1.508-0.635,2.104c-0.477,1.181-0.983,1.915-1.102,2.074
			c-0.01,0.02-0.02,0.03-0.02,0.03s-9.052,1.27-12.594-2.213c-0.219-0.199,0.738-3.083,0.68-3.391
			c-1.689-8.849-3.964-22.152-2.723-22.152c1.239,0,3.534,3.119,10.291,8.687C1886.002,435.515,1886.279,441.447,1885.534,444.97z" class="colorFFD788 svgShape"/><path fill="#425dff" d="M1413.27,1670.103c-30.051,11.155-37.246,12.881-35.518,29.568c1.727,16.69,41.147,48.055,56.396,72.225
				c15.251,24.169,22.732,34.815,37.407,32.227c14.675-2.59-8.632-45.751-12.085-64.742c-3.453-18.988-1.15-34.049-2.302-50.354
				c-1.151-16.303-15.154-25.128-15.154-25.128L1413.27,1670.103z" class="color515151 svgShape"/><path fill="#ffd788" d="M1465.514,1650.758c-1.351,2.482-2.601,6.521-3.692,11.074c-2.849,11.859-4.654,27.191-4.654,27.191
				s0,0-1.777-1.182c-0.009-0.01-0.029-0.021-0.038-0.029c-0.617-0.408-1.419-0.953-2.502-1.668
				c-4.317-2.877-9.495,0.863-9.784,15.541c-0.287,14.676-11.798,8.056-23.013-5.468c-11.223-13.526-10.647-19.847-5.756-27.905
				c4.894-8.058,5.756-31.08,5.756-31.08S1470.406,1641.837,1465.514,1650.758z" class="colorFFD788 svgShape"/><path fill="#f9ba7a" d="M1465.514,1650.758c-1.351,2.482-2.601,6.521-3.692,11.074c-0.447,0.207-0.705,0.318-0.705,0.318
			c-17.237,2.6-36.965-9.805-38.831-11.174c-1.855-1.36,0.497,6.709-2.977,14.766c-3.473,8.059-1.856,15.629,1.617,22.705
			c3.474,7.065,14.369,14.756,17.485,13.894c3.106-0.874,1.736-13.894,5.468-16.87c3.691-2.967,8.355-0.606,11.472,2.342
			c-0.617-0.408-1.419-0.953-2.502-1.668c-4.317-2.877-9.495,0.863-9.784,15.541c-0.287,14.676-11.798,8.056-23.013-5.468
			c-11.223-13.526-10.647-19.847-5.756-27.905c4.894-8.058,5.756-31.08,5.756-31.08S1470.406,1641.837,1465.514,1650.758z" class="colorF9BA7A svgShape"/><path fill="#425dff" d="M1590.676,1420.346c-36.825,50.133-125.739,239.333-125.739,239.333s-8.634,2.015-25.038-2.588
				c-16.392-4.606-31.358-25.613-31.358-25.613s25.802-34.147,43.444-98.6c17.654-64.454,46.81-92.844,69.059-141.946
				c22.257-49.111,59.085-143.493,63.688-186.461l5.251-9.458l16.233-29.235c0,0,78.843-3.89,81.144,42.146
				C1689.664,1253.96,1627.512,1370.213,1590.676,1420.346z" class="color515151 svgShape"/><path fill="#353535" d="M1682.865,1228.646c-48.128,22.792-90.8,11.876-90.8,11.876s-53.091,138.858-71.449,172.382
			c-16.851,30.771,24.66,47.095,31.605,49.576c-4.424-1.508-22.793-8.02-34.086-15.551c-12.9-8.603-15.551-12.9-26.465,5.289
			c-10.916,18.2-25.137,60.702-38.534,101.388c-13.396,40.687-19.648,62.808-28.281,74.922c-8.634,12.118,8.712,25.585,40.081,31.15
			c0,0-8.634,2.015-25.038-2.588c-16.392-4.606-31.358-25.613-31.358-25.613s25.802-34.147,43.444-98.6
			c17.654-64.454,46.81-92.844,69.059-141.946c22.257-49.111,59.085-143.493,63.688-186.461l5.251-9.458l16.233-4.436
			L1682.865,1228.646z" class="color353535 svgShape"/><path fill="#425dff" d="M1832.02,1473.602c-11.722,4.415-44.718,13.238-37.044,32.613c7.673,19.374,61.192,65.41,74.237,79.033
				c13.045,13.619,33.665,29.828,39.71,18.895c6.041-10.935-19.857-49.78-23.884-75.101c-4.03-25.321-5.468-49.779-5.468-49.779
				l-35.104-5.661H1832.02z" class="color515151 svgShape"/><path fill="#ffd788" d="M1883.023,1425.744c-0.446,2.54-0.834,5.576-1.181,8.894c-0.199,1.982-0.387,4.077-0.565,6.22
				c-1.38,17.396-1.708,38.403-1.708,38.403s-5.755,2.591-10.935,7.483c-1.775,1.676-1.965,4.138-1.558,6.905
				c0.743,5.309,3.642,11.771,1.558,16.116c-3.165,6.619-11.513-2.303-16.682-14.389c-5.181-12.087-22.734-17.267-19.57-23.021
				c3.168-5.757,0.576-14.966,0-36.828C1832.383,1435.527,1885.901,1409.341,1883.023,1425.744z" class="colorFFD788 svgShape"/><path fill="#f9ba7a" d="M1838.288,1447.426c0,0,1.331,18.687,0.834,23.32c-0.495,4.634,6.778,6.123,10.083,14.221
			c3.313,8.105,8.932,15.55,13.236,18.031c3.057,1.768,3.692-5.259,4.636-9.349c0.743,5.309,3.642,11.771,1.558,16.116
			c-3.165,6.619-11.513-2.303-16.682-14.389c-5.181-12.087-22.734-17.267-19.57-23.021c3.168-5.757,0.576-14.966,0-36.828h46.93
			l2.53-0.89c-0.199,1.982-0.387,4.077-0.565,6.22C1865.241,1449.58,1838.288,1447.426,1838.288,1447.426z" class="colorF9BA7A svgShape"/><path fill="#425dff" d="M1886.287,1434.277c0,0-3.495,3.106-11.213,5.706c-0.012,0-0.012,0-0.021,0
				c-5.587,1.887-13.387,3.505-23.678,3.505c-24.56,0-28.778-11.889-28.778-11.889s12.089-61.387,14.964-120.66
				c2.878-59.283,22.448-95.532,22.448-95.532s-29.353,7.481-95.533,13.239c-64.215,5.585-111.628,8.463-154.35-6.292
				c-1.31-0.448-2.61-0.915-3.91-1.399l109.923-93.598c0,0,54.094,2.302,119.695,4.603c65.604,2.303,97.837,4.029,107.036,50.362
				C1952.078,1228.654,1886.287,1434.277,1886.287,1434.277z" class="color515151 svgShape"/><path fill="#353535" d="M1855.205,1244.492c-5.953,25.474-15.878,72.442-14.884,108.165c0.992,35.725-9.903,70.458-11.582,77.403
			c-1.677,6.947,32.759,11.243,46.313,9.924c-5.587,1.887-13.387,3.505-23.678,3.505c-24.56,0-28.778-11.889-28.778-11.889
			s12.089-61.387,14.964-120.66c2.878-59.283,22.448-95.532,22.448-95.532s-29.353,7.481-95.533,13.239
			c-64.215,5.585-111.628,8.463-154.35-6.292c-0.467-0.915-0.773-1.399-0.922-1.399c-2.988,0,49.845-12.187,49.845-12.187
			c66.488,12.9,151.829,8.931,197.806-2.65c30.712-7.729,53.01-21.067,64.432-29.064c-7.364,5.558-18.874,14.002-32.341,23.111
			C1865.456,1216.041,1861.159,1219.018,1855.205,1244.492z" class="color353535 svgShape"/><path fill="#ffd788" d="M1904.925,475.513c-3.831,9.339-11.026,16.592-13.943,19.61c-6.509,6.738-20.89,15.203-28.996,30.415
				c0,0-29.354-4.525-21.335-17.039c3.84-6.004,6.072-10.479,7.035-14.21c1.062-4.049,0.655-7.214-0.744-10.469
				c-2.688-6.252,2.423-28.549,3.711-37.868c1.291-9.309,6.997-14.618,9.736-11.075c2.729,3.542-2.302,22.943-1.021,25.87
				c1.278,2.928,6.418-2.47,11.073-12.216c0.229-0.476,0.476-1.002,0.744-1.567c1.926-4.04,4.853-10.202,8.019-16.245
				c6.568,5.409,7.076,10.728,6.331,14.25c-0.893,2.203-1.548,3.731-1.736,4.178c0.148-0.288,0.526-1.013,1.102-2.074
				c0.792-1.499,1.965-3.672,3.364-6.203c6.41-2.46,9.684,1.23,7.392,8.464c-1.091,2.153-1.855,3.602-2.044,3.96
				c0.16-0.239,0.656-1.013,1.39-2.154c0,0,0.011,0,0.011-0.01c0.406-0.139,10.855-1.925,5.299,11.064c0,0,1.439-1.369,3.026-2.144
				h0.01C1906.354,458.584,1909.866,459.27,1904.925,475.513z" class="colorFFD788 svgShape"/><path fill="#f9ba7a" d="M1904.925,475.513c-3.831,9.339-11.026,16.592-13.943,19.61c-6.509,6.738-20.89,15.203-28.996,30.415
			c0,0-29.354-4.525-21.335-17.039c3.84-6.004,6.072-10.479,7.035-14.21c8.138,3.086,12.483,8.802,15.333,14.131
			c2.847,5.329,24.807-13.268,32.876-25.305c8.047-12.027,12.652-21.425,7.452-23.063
			C1906.354,458.584,1909.866,459.27,1904.925,475.513z" class="colorF9BA7A svgShape"/><path fill="#ffd788" d="M1658.591,825.639c-0.147,13.689-3.889,21.603-3.889,21.603l26.472-25.61
				c0,0,29.398-23.834,19.807-35.343c-9.592-11.51-34.912-2.686-36.447,0c-1.534,2.685-1.919,4.796-1.919,6.713
				C1662.614,794.921,1658.591,825.639,1658.591,825.639z" class="colorFFD788 svgShape"/><path fill="#f9ba7a" d="M1718.938,781.891c-1.548,2.253-3.542,4.208-6.112,5.646c-15.392,8.633-32.945,1.727-32.945,1.727
				s-3.306,3.741-15.967,0.288c-12.663-3.454-27.776-23.311-27.776-23.311l36.261-62.726l7.482-11.938
				c0.267,0.11,0.535,0.218,0.803,0.338c18.934,8.187,30.048,30.068,35.021,44.258c5.03,14.389,7.193,15.967,7.193,15.967
				S1726.59,770.697,1718.938,781.891z" class="colorF9BA7A svgShape"/><path fill="#ffd788" d="M1718.938,781.891c-0.834,0.714-1.757,1.36-2.769,1.925c-15.391,8.634-32.944,1.727-32.944,1.727
				s-3.306,3.741-15.968,0.288c-12.663-3.454-27.768-23.31-27.768-23.31l36.262-62.727l4.932-7.878
				c18.934,8.187,30.048,30.068,35.021,44.258c5.03,14.389,7.193,15.967,7.193,15.967S1726.59,770.697,1718.938,781.891z" class="colorFFD788 svgShape"/><path fill="#f9ba7a" d="M1689.191,696.82c8.252,18.427-4.921,25.202-4.053,31.032c0.869,5.83,4.36,8.931-0.053,17.366
			c-4.411,8.435,1.287,17.559-1.063,22.576c-2.351,5.017-22.204-23.196-22.204-23.196l-1.181-59.477l19.326,6.139
			C1679.964,691.26,1686.793,691.465,1689.191,696.82z" class="colorF9BA7A svgShape"/><path fill="#4c4c4c" d="M1679.016,725.383c7.481,8.346,3.74,17.84,0,23.883c-3.739,6.042,10.513,20.717,7.271,27.048
				c-3.241,6.33-7.56-18.991-20.218-19.566c-12.661-0.576-18.129,16.977-10.07,23.882c8.057,6.907,21.048,3.741,18.004,17.265
				c-3.042,13.524-15.795,28.198-15.795,28.198s-1.347-8.919-12.569-6.617c-11.222,2.302-23.02-4.029-29.061-18.128
				c-6.044-14.099,22.442-119.412,39.898-116.151c17.457,3.261,22.062,23.978,22.062,23.978L1679.016,725.383z" class="color4C4C4C svgShape"/><path fill="#425dff" d="M1729.933,1124.487c-0.299,0.647-12.583,26.358-32.401,51.901c-12.066,15.54-26.912,31.02-43.545,40.744
				c-44.316,25.902-70.217,0-70.217,0s0,0-6.322-18.992c-6.33-18.994,25.892-85.75,28.769-124.302
				c2.878-38.562-4.028-91.504,6.906-145.596c10.937-54.093,42.582-94.382,86.414-144.485l39.614,32.836c0,0,0,7.563,0.179,20.135
				c0.348,24.61,1.38,68.422,4.426,112.234c4.604,66.18-9.397,102.431-23.211,143.87
				C1706.93,1133.676,1729.297,1124.745,1729.933,1124.487z" class="colorEDEDED svgShape"/><path fill="#425dff" d="M1729.933,1124.487c-0.299,0.647-12.583,26.358-32.401,51.901c10.37-19.789,18.171-37.82,19.569-41.551
			c2.977-7.939-8.436-7.481-8.436-7.481s-4.465,4.504-21.245,19.885c-16.383,15.025-75.468,48.983-78.216,50.551
			c3.363-2.233,97.16-64.444,97.805-81.979c0.665-17.862,23.16-81.372,26.465-121.065c3.306-39.694,7.96-86.722,0-144.219
			l5.855-13.803c0.348,24.61,1.38,68.422,4.426,112.234c4.604,66.18-9.397,102.431-23.211,143.87
			C1706.93,1133.676,1729.297,1124.745,1729.933,1124.487z" class="colorD6D6D6 svgShape"/><path fill="red" d="M1867.193,523.177c0,0-24.451,75.884-42.294,123.655c-17.844,47.762-57.546,135.237-77.115,183.575
				c-17.931,44.307-39.733,67.826-59.204,57.257c-1.767-0.962-3.521-2.203-5.249-3.741c-20.72-18.408-5.18-66.18,29.354-123.15
				c0,0,71.191-167.091,91.911-201.327c20.711-34.245,34.663-61.148,34.663-61.148s7.343,0.565,15.609,7.394
				C1861.588,511.228,1867.193,523.177,1867.193,523.177z" class="colorred svgShape"/><path fill="#2d2d2d" d="M1621.755,689.607c-31.708,16.145-44.887,52.753-36.542,82.102c8.345,29.35,30.5,49.492,45.75,37.407
				c15.25-12.085,17.553-27.623,21.293-42.586c3.742-14.962,20.43-24.745,18.704-45.462c-1.728-20.718-10.323-27.335-10.323-27.335
				s20.438,15.25,13.365,45.462c0,0,25.732-44.311,2.712-53.231C1653.695,677.043,1637.581,681.551,1621.755,689.607z" class="color2D2D2D svgShape"/><path fill="#db0000" d="M1867.193,523.177c0,0-24.451,75.884-42.294,123.655c-17.844,47.762-57.546,135.237-77.115,183.575
			c-17.931,44.307-39.733,67.826-59.204,57.257c23.976-10.38,24.551-21.801,52.168-74.981
			c33.741-64.969,86.672-200.979,106.52-247.947c19.846-46.968,9.259-50.282-8.009-66.438c0,0,7.343,0.565,15.609,7.394
			C1861.588,511.228,1867.193,523.177,1867.193,523.177z" class="colorDB0000 svgShape"/></g><polyline fill="none" stroke="#A4D1E4" stroke-miterlimit="10" stroke-width="29" points="2607.141 2350.217 407.544 2350.217 407.544 584.019"/><g class="color000 svgShape"><path fill="none" stroke="#425dff" stroke-miterlimit="10" stroke-width="63" d="M1302.628,1006.2
			c0,82.74-67.074,149.814-149.814,149.814S1003,1088.94,1003,1006.2s67.074-149.814,149.814-149.814
			c37.236,0,71.3,13.585,97.505,36.069C1282.342,919.931,1302.628,960.696,1302.628,1006.2z" class="colorStrokeA4D1E4 svgStroke"/><path fill="none" stroke="#FFCE00" stroke-miterlimit="10" stroke-width="63" d="M1152.814,856.386
			c37.236,0,71.3,13.585,97.505,36.069c32.022,27.476,52.309,68.241,52.309,113.745" class="colorStrokeFFCE00 svgStroke"/></g></svg></svg>