<svg width="46" height="48" viewBox="0 0 46 48" fill="none" xmlns="http://www.w3.org/2000/svg">
<path d="M5.91014 0.256592H40.0812C41.5183 0.256592 42.8966 0.827504 43.9129 1.84373C44.9291 2.85997 45.5 4.23827 45.5 5.67544V42.3246C45.5 43.7618 44.9291 45.1401 43.9129 46.1563C42.8966 47.1726 41.5183 47.7435 40.0812 47.7435H5.91014C4.47529 47.7435 3.09921 47.1735 2.08461 46.1589C1.07002 45.1443 0.500028 43.7682 0.500028 42.3334V5.68416C0.497732 4.97223 0.635974 4.26684 0.906829 3.60844C1.17768 2.95004 1.57583 2.35157 2.07843 1.84734C2.58103 1.34312 3.17822 0.943051 3.83574 0.670077C4.49327 0.397102 5.19821 0.256588 5.91014 0.256592Z" fill="#42B0D5"/>
<path d="M30.1681 22.7696L39.0511 11.6265L39.0249 11.5916L26.189 17.7783L23.0215 3.88654H22.9691L19.8016 17.7783L6.96563 11.5916L6.93945 11.6265L15.8225 22.7696L2.98657 28.9476L2.9953 28.9912H17.2449L14.0773 42.883L14.1122 42.9005L22.9953 31.7574L31.8784 42.9005L31.9133 42.883L28.7457 28.9912H42.9953L43.004 28.9476L30.1681 22.7696Z" fill="white"/>
</svg>
